<svg xmlns="http://www.w3.org/2000/svg" viewBox="0 0 512 512" fill="#4ECDC4">
  <path d="M288 192h17.1c22.1 38.3 63.5 64 110.9 64c11 0 21.8-1.4 32-4v4 32V480c0 17.7-14.3 32-32 32s-32-14.3-32-32V339.2L248 448h56c17.7 0 32 14.3 32 32s-14.3 32-32 32H160c-53 0-96-43-96-96V192.5c0-16.1-12-29.8-28-31.8l-7.9-1c-17.5-2.2-30-18.2-27.8-35.7s18.2-30 35.7-27.8l7.9 1c48 6 84.1 46.8 84.1 95.3v85.3c34.4-51.7 93.2-85.8 160-85.8zm160 26.5v0c-10 3.5-20.8 5.5-32 5.5c-28.4 0-54-12.4-71.6-32h0c-3.7-4.1-7-8.5-9.9-13.2C325.3 164 320 146.6 320 128v0V32 12 10.7C320 4.8 324.7 .1 330.6 0h.2c3.3 0 6.4 1.6 8.4 4.2l0 .1L352 21.3l13-17c2-2.6 5.1-4.2 8.4-4.2h.2C379.5 .1 384 4.8 384 10.7V12 32v96c0 17.3-4.6 33.6-12.6 47.6c-11.3 19.8-29.6 35.2-51.4 42.9zM439.1 192h0c-1.9 0-3.8-.1-5.7-.2c37.9-29.2 62.6-75.2 62.6-127V32c0-17.7 14.3-32 32-32s32 14.3 32 32V64.8c0 80.1-59 146.6-136.9 158.2c-6.5 1-13.2 1.5-19.9 1.5h-7.9z"/>
</svg>