<svg xmlns="http://www.w3.org/2000/svg" viewBox="0 0 64 64">
  <circle cx="32" cy="32" r="30" fill="#f0f7ff"/>
  <path d="M32 8C18.745 8 8 18.745 8 32s10.745 24 24 24 24-10.745 24-24S45.255 8 32 8zm0 44c-11.046 0-20-8.954-20-20s8.954-20 20-20 20 8.954 20 20-8.954 20-20 20z" fill="#e1edfb"/>
  <path d="M44 30h-2v-4c0-5.52-4.48-10-10-10s-10 4.48-10 10v4h-2c-1.1 0-2 .9-2 2v10c0 1.1.9 2 2 2h6v-14h-2v-4c0-4.41 3.59-8 8-8s8 3.59 8 8v4h-2v14h6c1.1 0 2-.9 2-2V32c0-1.1-.9-2-2-2z" fill="#4a89dc"/>
  <path d="M30 40h4v4h-4z" fill="#5d9cec"/>
  <path d="M30 36h4v2h-4z" fill="#5d9cec"/>
  <path d="M30 32h4v2h-4z" fill="#5d9cec"/>
  <path d="M26 30h-2v-4c0-4.41 3.59-8 8-8s8 3.59 8 8v4h-2v-4c0-3.31-2.69-6-6-6s-6 2.69-6 6v4z" fill="#5d9cec"/>
</svg>