<svg xmlns="http://www.w3.org/2000/svg" width="200" height="60" viewBox="0 0 200 60">
  <!-- Background Shape -->
  <rect x="0" y="10" width="200" height="40" rx="20" fill="#FFFFFF" />
  
  <!-- Paw Icon -->
  <g transform="translate(15, 15) scale(0.03)">
    <path fill="#FF6B6B" d="M256 224c-79.5 0-144 64.5-144 144s64.5 144 144 144 144-64.5 144-144-64.5-144-144-144zm59.4 180.2c-5.5 12.2-15.6 22-28.1 27.3-12.5 5.3-26.3 5.3-38.8 0-12.5-5.3-22.6-15.1-28.1-27.3-1.2-2.7-.2-5.9 2.4-7.2 2.7-1.2 5.9-.2 7.2 2.4 4.4 9.7 12.4 17.5 22.5 21.8 9.8 4.2 21 4.2 30.8 0 10.1-4.3 18.1-12.1 22.5-21.8 1.2-2.7 4.4-3.7 7.2-2.4 2.7 1.3 3.6 4.5 2.4 7.2zM144.4 208C144.4 93.1 237.5 0 352.4 0c5.6 0 11 .3 16.4 .8-5.6 4.6-16.8 15.5-18.6 20.7-1.9 5.5-1.3 11.4 1.6 16.4 2.9 4.9 7.8 8.4 13.4 9.6 11.3 2.3 20.4-6.4 50.8-36.8 5.2-5.2 13.8-5 18.8 .5 4.9 5.3 4.6 13.8-.7 18.7-30.7 28.9-39.8 37.2-37.5 48.6 1.1 5.6 4.6 10.5 9.6 13.4 4.9 2.9 10.9 3.5 16.4 1.6 5.3-1.9 16.1-13 20.7-18.6 .5 5.4 .8 10.8 .8 16.4 0 114.9-93.1 208-208 208-57.5 0-109.5-23.3-147.2-60.9 3.8-4.4 7.2-9.1 10.2-14.1 7.3-12.3 11.8-26.4 12.5-40.9H160c26.5 0 48-21.5 48-48V112c0-26.5-21.5-48-48-48H112c-26.5 0-48 21.5-48 48v96c0 5.7 1 11.2 2.8 16.2-5.5 3.4-10.8 7.2-15.9 11.4-2.9-8.8-4.5-18.2-4.5-28 0-49.5 40.2-89.7 89.7-89.7 8.2 0 16.1 1.1 23.6 3.2 11.7-10.7 26.9-17.4 43.7-17.8 16.7-.4 32.1 5.5 44.4 15.5 8.1-2.7 16.8-4.2 25.8-4.2 44.3 0 80.3 35.9 80.3 80.3 0 2.5-.1 5-.3 7.5-1.6-.7-3.2-1.4-4.9-2-1.8-.6-3.6-1.2-5.4-1.7V152c0-39.1-31.6-70.7-70.7-70.7-15.5 0-30 5-42 14.3-10.5-16.8-29-27.9-50-27.9-21.8 0-40.8 12-50.8 29.7-5.7-1.5-11.6-2.3-17.7-2.3-39.1 0-70.7 31.6-70.7 70.7v11.5c0 22.6 10.7 43.5 28.8 56.8-8.8 14.3-14.3 30.7-15.8 48.1-9.9 6.8-19 14.5-27.3 23zM160 112v96H112V112h48z"/>
  </g>
  
  <!-- Text -->
  <text x="50" y="35" font-family="Nunito, sans-serif" font-size="22" font-weight="800" fill="#2A363B">Pawfect</text>
  <text x="135" y="35" font-family="Nunito, sans-serif" font-size="22" font-weight="800" fill="#FF6B6B">World</text>
</svg>