<svg xmlns="http://www.w3.org/2000/svg" width="200" height="200" viewBox="0 0 200 200">
  <!-- Background -->
  <rect width="200" height="200" fill="#f8f8f8" rx="10" ry="10"/>
  
  <!-- Treat Jar -->
  <g transform="translate(100, 110)">
    <!-- Jar -->
    <path d="M-40,-60 L40,-60 L45,40 C45,50 35,60 0,60 C-35,60 -45,50 -45,40 Z" fill="#B0C4DE" opacity="0.7"/>
    <ellipse cx="0" cy="-60" rx="40" ry="10" fill="#B0C4DE"/>
    
    <!-- Jar Lid -->
    <path d="M-35,-70 L35,-70 L35,-60 L-35,-60 Z" fill="#4682B4"/>
    <ellipse cx="0" cy="-70" rx="35" ry="8" fill="#4682B4"/>
    <ellipse cx="0" cy="-70" rx="30" ry="5" fill="#5F9EA0"/>
    
    <!-- Jar Highlights -->
    <path d="M-35,-55 L35,-55 L40,40 C40,48 30,55 0,55 C-30,55 -40,48 -40,40 Z" fill="#D3D3D3" opacity="0.3"/>
    
    <!-- Jar Label -->
    <rect x="-30" y="-40" width="60" height="70" rx="5" ry="5" fill="#F5F5DC"/>
    
    <!-- Label Content -->
    <text x="0" y="-25" font-family="Arial" font-size="10" font-weight="bold" text-anchor="middle" fill="#8B4513">GOURMET</text>
    <text x="0" y="-10" font-family="Arial" font-size="12" font-weight="bold" text-anchor="middle" fill="#8B4513">PET</text>
    <text x="0" y="5" font-family="Arial" font-size="12" font-weight="bold" text-anchor="middle" fill="#8B4513">TREATS</text>
    
    <!-- Paw Print on Label -->
    <g transform="translate(0, 25) scale(0.7)" fill="#8B4513" opacity="0.7">
      <ellipse cx="0" cy="-5" rx="5" ry="7"/>
      <ellipse cx="-8" cy="-2" rx="4" ry="6"/>
      <ellipse cx="8" cy="-2" rx="4" ry="6"/>
      <ellipse cx="0" cy="8" rx="7" ry="8"/>
    </g>
  </g>
  
  <!-- Treats Outside Jar -->
  <g>
    <!-- Bone Shaped Treats -->
    <g transform="translate(40, 160) rotate(-20)">
      <rect x="-15" y="-5" width="30" height="10" rx="5" ry="5" fill="#F5DEB3"/>
      <circle cx="-15" cy="-5" r="7" fill="#F5DEB3"/>
      <circle cx="-15" cy="5" r="7" fill="#F5DEB3"/>
      <circle cx="15" cy="-5" r="7" fill="#F5DEB3"/>
      <circle cx="15" cy="5" r="7" fill="#F5DEB3"/>
    </g>
    
    <g transform="translate(160, 150) rotate(30)">
      <rect x="-12" y="-4" width="24" height="8" rx="4" ry="4" fill="#F5DEB3"/>
      <circle cx="-12" cy="-4" r="5" fill="#F5DEB3"/>
      <circle cx="-12" cy="4" r="5" fill="#F5DEB3"/>
      <circle cx="12" cy="-4" r="5" fill="#F5DEB3"/>
      <circle cx="12" cy="4" r="5" fill="#F5DEB3"/>
    </g>
    
    <!-- Fish Shaped Treats -->
    <g transform="translate(50, 130) rotate(10)">
      <path d="M-10,0 C-5,-5 5,-5 10,0 C5,5 -5,5 -10,0 Z" fill="#FFA07A"/>
      <path d="M10,0 L15,-5 L15,5 Z" fill="#FFA07A"/>
      <circle cx="-5" cy="-2" r="1" fill="#000000"/>
    </g>
    
    <g transform="translate(150, 130) rotate(-10)">
      <path d="M-8,0 C-4,-4 4,-4 8,0 C4,4 -4,4 -8,0 Z" fill="#FFA07A"/>
      <path d="M8,0 L12,-4 L12,4 Z" fill="#FFA07A"/>
      <circle cx="-4" cy="-1.5" r="0.8" fill="#000000"/>
    </g>
  </g>
  
  <!-- "All Natural" Label -->
  <g transform="translate(100, 30)">
    <rect x="-50" y="-15" width="100" height="30" rx="15" ry="15" fill="#32CD32"/>
    <text x="0" y="5" font-family="Arial" font-size="12" font-weight="bold" text-anchor="middle" fill="white">ALL NATURAL</text>
  </g>
  
  <!-- "Grain Free" Banner -->
  <g transform="translate(40, 50) rotate(-30)">
    <rect x="-40" y="-10" width="80" height="20" fill="#FF6347"/>
    <text x="0" y="5" font-family="Arial" font-size="12" font-weight="bold" text-anchor="middle" fill="white">GRAIN FREE</text>
  </g>
</svg>