<svg xmlns="http://www.w3.org/2000/svg" viewBox="0 0 64 64">
  <circle cx="32" cy="32" r="30" fill="#f0f7ff"/>
  <path d="M32 8C18.745 8 8 18.745 8 32s10.745 24 24 24 24-10.745 24-24S45.255 8 32 8zm0 44c-11.046 0-20-8.954-20-20s8.954-20 20-20 20 8.954 20 20-8.954 20-20 20z" fill="#e1edfb"/>
  <path d="M32 18l3.09 6.26 6.91 1.01-5 4.87 1.18 6.88L32 33.77l-6.18 3.25 1.18-6.88-5-4.87 6.91-1.01L32 18z" fill="#ffce54"/>
  <path d="M42 40H22c-1.1 0-2 .9-2 2v2c0 1.1.9 2 2 2h20c1.1 0 2-.9 2-2v-2c0-1.1-.9-2-2-2z" fill="#4a89dc"/>
  <path d="M26 42h12v2H26z" fill="#fff"/>
  <path d="M40 42h2v2h-2zM22 42h2v2h-2z" fill="#5d9cec"/>
</svg>