<svg xmlns="http://www.w3.org/2000/svg" viewBox="0 0 64 64">
  <circle cx="32" cy="32" r="30" fill="#f0f7ff"/>
  <path d="M32 8C18.745 8 8 18.745 8 32s10.745 24 24 24 24-10.745 24-24S45.255 8 32 8zm0 44c-11.046 0-20-8.954-20-20s8.954-20 20-20 20 8.954 20 20-8.954 20-20 20z" fill="#e1edfb"/>
  <path d="M42 24H22c-1.1 0-2 .9-2 2v16c0 1.1.9 2 2 2h20c1.1 0 2-.9 2-2V26c0-1.1-.9-2-2-2z" fill="#4a89dc"/>
  <path d="M42 28H22v-2c0-1.1.9-2 2-2h16c1.1 0 2 .9 2 2v2z" fill="#5d9cec"/>
  <path d="M26 36h12v2H26z" fill="#fff"/>
  <path d="M26 32h4v2h-4z" fill="#fff"/>
  <circle cx="38" cy="33" r="2" fill="#ffce54"/>
  <circle cx="34" cy="33" r="2" fill="#fc6e51"/>
</svg>