<svg xmlns="http://www.w3.org/2000/svg" viewBox="0 0 512 512" fill="#FF6B6B">
  <path d="M256 0c-141.4 0-256 114.6-256 256s114.6 256 256 256s256-114.6 256-256S397.4 0 256 0zM382.8 246.1l-80 72c-2.5 2.3-5.8 3.5-9.1 3.5c-3.1 0-6.3-1.1-8.8-3.2l-80-64c-5.4-4.3-6.2-12.2-1.9-17.6s12.2-6.2 17.6-1.9l71.1 56.9l71.2-64.1c5.3-4.8 13.5-4.3 18.3 1s4.3 13.5-1 18.3l-4.5 4.1 7.2-5zM200 184c-13.3 0-24-10.7-24-24s10.7-24 24-24s24 10.7 24 24s-10.7 24-24 24zm136 0c-13.3 0-24-10.7-24-24s10.7-24 24-24s24 10.7 24 24s-10.7 24-24 24z"/>
</svg>